<svg width="62" height="35" viewBox="0 0 62 35" fill="none" xmlns="http://www.w3.org/2000/svg">
<path d="M18.6004 11.493C18.6004 12.1225 18.4674 12.706 18.2015 13.2434C17.9357 13.7808 17.5759 14.2722 17.1224 14.7174C16.6688 15.1474 16.137 15.5312 15.5271 15.869C14.9327 16.1915 14.2993 16.4679 13.6268 16.6982C12.9699 16.9132 12.2895 17.0821 11.5857 17.2049C10.8976 17.3124 10.2329 17.3661 9.5916 17.3661C9.01292 17.3661 8.47333 17.3201 7.97284 17.2279C8.72357 14.5409 9.3179 11.8384 9.75583 9.12067C10.2094 6.38754 10.6395 3.63906 11.0461 0.875217C11.8594 0.706315 12.704 0.560446 13.5799 0.437609C14.4557 0.299417 15.3628 0.230321 16.3013 0.230321C16.6923 0.230321 17.1067 0.276385 17.5447 0.368513C17.9826 0.46064 18.3814 0.629542 18.7411 0.875217C19.1009 1.12089 19.398 1.44334 19.6326 1.84256C19.8829 2.24178 20.008 2.74849 20.008 3.36267C20.008 3.94615 19.9063 4.49124 19.703 4.99794C19.5153 5.50465 19.2651 5.96529 18.9523 6.37986C18.6551 6.79444 18.311 7.15527 17.92 7.46237C17.529 7.75411 17.1302 7.97675 16.7235 8.1303C16.9269 8.23778 17.138 8.39133 17.357 8.59094C17.5759 8.79055 17.7793 9.02854 17.9669 9.30493C18.1546 9.56596 18.3032 9.88073 18.4127 10.2492C18.5378 10.6178 18.6004 11.0323 18.6004 11.493ZM13.228 9.09764C13.1654 9.46615 13.1028 9.79628 13.0403 10.088C12.9934 10.3644 12.9464 10.6331 12.8995 10.8941C12.8526 11.1552 12.7978 11.4315 12.7353 11.7233C12.6884 11.9997 12.6336 12.3298 12.5711 12.7137C12.8682 12.683 13.2045 12.6292 13.5799 12.5524C13.9552 12.4757 14.3149 12.3605 14.659 12.207C15.0031 12.0381 15.2925 11.8231 15.5271 11.5621C15.7617 11.2857 15.879 10.9556 15.879 10.5717C15.879 10.2953 15.8008 10.065 15.6444 9.88073C15.5036 9.69647 15.3159 9.54293 15.0813 9.42009C14.8624 9.29725 14.6199 9.2128 14.354 9.16674C14.0882 9.10532 13.8379 9.07461 13.6033 9.07461C13.5251 9.07461 13.4547 9.07461 13.3922 9.07461C13.3453 9.07461 13.2905 9.08229 13.228 9.09764ZM14.2837 3.5239C14.2524 3.6928 14.2133 3.89241 14.1664 4.12273C14.1351 4.35305 14.096 4.59872 14.0491 4.85975C14.0021 5.10543 13.9474 5.3511 13.8848 5.59678C13.8379 5.84245 13.7988 6.05742 13.7675 6.24167C14.1116 6.18025 14.4557 6.0958 14.7998 5.98832C15.1439 5.88084 15.4489 5.76568 15.7147 5.64284C15.9963 5.50465 16.2152 5.35878 16.3716 5.20523C16.5437 5.05169 16.6297 4.88278 16.6297 4.69853C16.6297 4.46821 16.5593 4.28395 16.4186 4.14576C16.2778 3.99221 16.0901 3.86938 15.8555 3.77725C15.6365 3.68512 15.4019 3.6237 15.1517 3.59299C14.9171 3.54693 14.706 3.5239 14.5183 3.5239H14.2837Z" fill="white"/>
<path d="M26.6645 16.8134C26.2735 16.8748 25.8434 16.9439 25.3742 17.0206C24.905 17.0974 24.4827 17.1665 24.1073 17.2279C24.1699 16.7212 24.2324 16.2222 24.295 15.7309C24.3419 15.3009 24.381 14.871 24.4123 14.4411C24.4592 14.0111 24.4983 13.6426 24.5296 13.3355H22.4885L21.5501 16.6521C21.206 16.6982 20.7994 16.7519 20.3302 16.8134C19.861 16.8594 19.4231 16.9055 19.0164 16.9516C18.5159 17.013 18.0233 17.0744 17.5384 17.1358C18.164 15.0936 18.7818 13.0822 19.3918 11.1014C19.642 10.2723 19.9001 9.40473 20.166 8.49881C20.4475 7.59288 20.7212 6.69463 20.9871 5.80406C21.2686 4.89814 21.5345 4.0306 21.7847 3.20145C22.035 2.3723 22.2539 1.61224 22.4416 0.92128C23.5052 0.844507 24.5843 0.752379 25.6791 0.644896C26.7896 0.537414 27.8688 0.391544 28.9167 0.207288C28.8698 0.698637 28.815 1.31282 28.7525 2.04985C28.7055 2.77152 28.6586 3.56228 28.6117 4.42214C28.5648 5.28201 28.5178 6.18025 28.4709 7.11689C28.424 8.05352 28.3771 8.9748 28.3302 9.88073C28.252 11.9997 28.1659 14.2491 28.0721 16.6291C27.6029 16.7059 27.1337 16.7673 26.6645 16.8134ZM23.0516 11.0323C23.1142 11.0323 23.2236 11.0323 23.38 11.0323C23.5521 11.017 23.7241 11.0093 23.8962 11.0093C24.0838 10.9939 24.2559 10.9863 24.4123 10.9863C24.5687 10.9709 24.6782 10.9556 24.7407 10.9402C24.7407 10.8481 24.7486 10.6945 24.7642 10.4796C24.7955 10.2492 24.8189 9.99589 24.8346 9.7195C24.8659 9.42777 24.8971 9.113 24.9284 8.77519C24.9597 8.43739 24.991 8.10726 25.0223 7.78482C25.0848 7.00173 25.163 6.15722 25.2569 5.2513L25.3976 3.24751L25.0457 3.27054L24.5061 5.2513L23.0516 11.0323Z" fill="white"/>
<path d="M28.2977 17.3892C28.7669 15.1781 29.2127 13.0361 29.635 10.9632C29.7914 10.0727 29.9556 9.15138 30.1276 8.19939C30.3153 7.2474 30.4874 6.31077 30.6438 5.38949C30.8002 4.45285 30.9409 3.56228 31.066 2.71778C31.1912 1.85792 31.285 1.0825 31.3476 0.391544C31.5509 0.406899 31.7229 0.414576 31.8637 0.414576C32.0045 0.414576 32.1687 0.414576 32.3564 0.414576C32.5753 0.414576 32.8412 0.414576 33.154 0.414576C33.4668 0.399222 33.7796 0.383867 34.0924 0.368513C34.4052 0.353158 34.7415 0.337803 35.1012 0.322448C35.3202 1.39728 35.5157 2.43372 35.6877 3.43177C35.8598 4.30698 36.0318 5.20523 36.2038 6.12651C36.3915 7.04779 36.5558 7.83088 36.6965 8.47578C36.7591 8.16868 36.8295 7.81553 36.9077 7.4163C36.9859 7.00173 37.0719 6.5718 37.1657 6.12651C37.2596 5.68123 37.3456 5.23594 37.4238 4.79066C37.5176 4.33002 37.6115 3.87705 37.7053 3.43177C37.9243 2.43372 38.1511 1.40495 38.3857 0.345481L41.2478 0C40.7161 2.34926 40.2468 4.57569 39.8402 6.67928C39.6525 7.58521 39.4648 8.50648 39.2771 9.44312C39.1051 10.3644 38.9409 11.255 38.7845 12.1148C38.6281 12.9593 38.4951 13.7501 38.3857 14.4871C38.2762 15.2088 38.1902 15.8153 38.1276 16.3067C38.0807 16.3067 37.893 16.345 37.5645 16.4218C37.2517 16.4832 36.8842 16.56 36.4619 16.6521C36.0553 16.7443 35.6408 16.8364 35.2185 16.9285C34.8119 17.0206 34.5069 17.1051 34.3036 17.1819C34.2097 15.9535 34.1081 14.7865 33.9986 13.681C33.9517 13.205 33.8969 12.7213 33.8344 12.23C33.7874 11.7233 33.7327 11.2396 33.6701 10.779C33.6076 10.3183 33.545 9.88841 33.4825 9.48918C33.4199 9.08996 33.3573 8.74448 33.2948 8.45274C33.2478 8.74448 33.1853 9.08228 33.1071 9.46615C33.0289 9.85002 32.9507 10.2569 32.8725 10.6868C32.7943 11.1168 32.7161 11.5697 32.6379 12.0457C32.5597 12.5064 32.4737 12.9517 32.3798 13.3816C32.1765 14.4104 31.9575 15.4852 31.7229 16.6061L28.2977 17.3892Z" fill="white"/>
<path d="M51.5504 8.49881C51.4409 10.065 51.1281 11.4315 50.612 12.5985C50.0958 13.7501 49.4702 14.7174 48.7351 15.5005C48.0157 16.2836 47.2337 16.8671 46.3891 17.251C45.5602 17.6348 44.7703 17.8268 44.0196 17.8268C43.4409 17.8268 42.8857 17.7039 42.3539 17.4583C41.8378 17.2126 41.3842 16.8441 40.9932 16.3527C40.6179 15.846 40.3207 15.2165 40.1017 14.4641C39.8828 13.7117 39.7733 12.8288 39.7733 11.8154C39.7733 9.83466 40.0626 8.10726 40.6413 6.63322C41.22 5.15917 41.9473 3.93079 42.8231 2.9481C43.7146 1.9654 44.6609 1.23605 45.6618 0.760057C46.6785 0.284062 47.6247 0.0460648 48.5005 0.0460648C49.1261 0.0460648 49.6657 0.153547 50.1193 0.368513C50.5885 0.583478 50.9717 0.875217 51.2689 1.24373C51.566 1.59689 51.7772 2.01914 51.9023 2.51049C52.043 2.98648 52.1134 3.49319 52.1134 4.0306L48.8994 4.62943C48.7586 4.01525 48.5709 3.57764 48.3363 3.31661C48.1017 3.05558 47.8358 2.92506 47.5387 2.92506C47.1477 2.92506 46.7176 3.20145 46.2483 3.75422C45.7791 4.29163 45.3412 4.99027 44.9346 5.85013C44.5279 6.70999 44.1838 7.6543 43.9023 8.68306C43.6208 9.71183 43.4644 10.7252 43.4331 11.7233C43.4331 12.6753 43.5739 13.3586 43.8554 13.7731C44.1526 14.1724 44.5279 14.372 44.9815 14.372C45.2943 14.372 45.6149 14.2952 45.9434 14.1416C46.2874 13.9881 46.5924 13.7731 46.8583 13.4968C47.1242 13.205 47.3432 12.8749 47.5152 12.5064C47.7029 12.1225 47.8045 11.7079 47.8202 11.2626L45.3099 11.6312L45.7557 9.35099C46.4908 9.25886 47.2102 9.16674 47.914 9.07461C48.5084 8.99783 49.134 8.90571 49.7909 8.79822C50.4634 8.69074 51.0499 8.59094 51.5504 8.49881Z" fill="white"/>
<path d="M10.6275 29.1268C10.6275 29.7564 10.4946 30.3399 10.2287 30.8773C9.96281 31.4147 9.60309 31.906 9.14952 32.3513C8.69596 32.7812 8.16419 33.1651 7.55422 33.5029C6.95989 33.8254 6.32647 34.1018 5.65394 34.3321C4.99705 34.547 4.3167 34.7159 3.61289 34.8388C2.92472 34.9463 2.26001 35 1.61876 35C1.04007 35 0.500487 34.9539 0 34.8618C0.75073 32.1747 1.34506 29.4723 1.78298 26.7545C2.23655 24.0214 2.66666 21.2729 3.0733 18.5091C3.88659 18.3402 4.73116 18.1943 5.60702 18.0715C6.48287 17.9333 7.39 17.8642 8.32841 17.8642C8.71942 17.8642 9.13388 17.9103 9.57181 18.0024C10.0097 18.0945 10.4086 18.2634 10.7683 18.5091C11.128 18.7548 11.4252 19.0772 11.6598 19.4764C11.91 19.8757 12.0351 20.3824 12.0351 20.9965C12.0351 21.58 11.9335 22.1251 11.7302 22.6318C11.5425 23.1385 11.2922 23.5992 10.9794 24.0137C10.6823 24.4283 10.3382 24.7891 9.94717 25.0962C9.55617 25.388 9.15734 25.6106 8.7507 25.7642C8.95402 25.8717 9.16516 26.0252 9.38413 26.2248C9.60309 26.4244 9.80641 26.6624 9.99409 26.9388C10.1818 27.1998 10.3304 27.5146 10.4398 27.8831C10.565 28.2516 10.6275 28.6662 10.6275 29.1268ZM5.25511 26.7315C5.19255 27.1 5.12999 27.4302 5.06743 27.7219C5.02051 27.9983 4.97359 28.267 4.92667 28.528C4.87975 28.789 4.82501 29.0654 4.76244 29.3572C4.71552 29.6335 4.66078 29.9637 4.59822 30.3475C4.89539 30.3168 5.23165 30.2631 5.60702 30.1863C5.98238 30.1095 6.34211 29.9944 6.68619 29.8408C7.03027 29.6719 7.31962 29.457 7.55422 29.1959C7.78883 28.9196 7.90613 28.5894 7.90613 28.2056C7.90613 27.9292 7.82793 27.6989 7.67152 27.5146C7.53076 27.3303 7.34308 27.1768 7.10848 27.054C6.88951 26.9311 6.64709 26.8467 6.38121 26.8006C6.11532 26.7392 5.86508 26.7085 5.63048 26.7085C5.55228 26.7085 5.48189 26.7085 5.41933 26.7085C5.37241 26.7085 5.31767 26.7162 5.25511 26.7315ZM6.31082 21.1578C6.27954 21.3267 6.24044 21.5263 6.19352 21.7566C6.16224 21.9869 6.12314 22.2326 6.07622 22.4936C6.0293 22.7393 5.97456 22.985 5.912 23.2306C5.86508 23.4763 5.82598 23.6913 5.7947 23.8755C6.13878 23.8141 6.48287 23.7297 6.82695 23.6222C7.17104 23.5147 7.47602 23.3996 7.7419 23.2767C8.02343 23.1385 8.24239 22.9927 8.39879 22.8391C8.57084 22.6856 8.65686 22.5167 8.65686 22.3324C8.65686 22.1021 8.58648 21.9178 8.44571 21.7796C8.30495 21.6261 8.11727 21.5033 7.88267 21.4111C7.6637 21.319 7.4291 21.2576 7.17886 21.2269C6.94425 21.1808 6.73311 21.1578 6.54543 21.1578H6.31082Z" fill="white"/>
<path d="M18.6916 34.4472C18.3006 34.5087 17.8705 34.5777 17.4013 34.6545C16.9321 34.7313 16.5098 34.8004 16.1345 34.8618C16.197 34.3551 16.2596 33.8561 16.3221 33.3647C16.3691 32.9348 16.4082 32.5049 16.4394 32.0749C16.4864 31.645 16.5255 31.2765 16.5568 30.9694H14.5157L13.5773 34.286C13.2332 34.3321 12.8266 34.3858 12.3574 34.4472C11.8881 34.4933 11.4502 34.5394 11.0436 34.5854C10.5431 34.6468 10.0504 34.7083 9.56558 34.7697C10.1912 32.7275 10.809 30.7161 11.4189 28.7353C11.6692 27.9061 11.9272 27.0386 12.1931 26.1327C12.4747 25.2268 12.7484 24.3285 13.0142 23.4379C13.2958 22.532 13.5617 21.6645 13.8119 20.8353C14.0621 20.0062 14.2811 19.2461 14.4688 18.5552C15.5323 18.4784 16.6115 18.3863 17.7063 18.2788C18.8168 18.1713 19.8959 18.0254 20.9438 17.8412C20.8969 18.3325 20.8422 18.9467 20.7796 19.6837C20.7327 20.4054 20.6858 21.1962 20.6388 22.056C20.5919 22.9159 20.545 23.8141 20.4981 24.7508C20.4512 25.6874 20.4042 26.6087 20.3573 27.5146C20.2791 29.6335 20.1931 31.883 20.0993 34.263C19.6301 34.3397 19.1608 34.4012 18.6916 34.4472ZM15.0788 28.6662C15.1413 28.6662 15.2508 28.6662 15.4072 28.6662C15.5792 28.6508 15.7513 28.6432 15.9233 28.6432C16.111 28.6278 16.283 28.6201 16.4394 28.6201C16.5959 28.6048 16.7053 28.5894 16.7679 28.5741C16.7679 28.4819 16.7757 28.3284 16.7914 28.1134C16.8226 27.8831 16.8461 27.6298 16.8617 27.3534C16.893 27.0616 16.9243 26.7469 16.9556 26.4091C16.9869 26.0713 17.0181 25.7411 17.0494 25.4187C17.112 24.6356 17.1902 23.7911 17.284 22.8852L17.4248 20.8814L17.0729 20.9044L16.5333 22.8852L15.0788 28.6662Z" fill="white"/>
<path d="M20.3718 34.9309C20.841 32.7812 21.2789 30.693 21.6856 28.6662C21.842 27.791 22.0062 26.8851 22.1782 25.9484C22.3503 25.0118 22.5067 24.0828 22.6475 23.1616C22.8039 22.2403 22.9368 21.3497 23.0463 20.4898C23.1714 19.6146 23.2652 18.8239 23.3278 18.1175C23.6875 18.1483 24.0942 18.179 24.5477 18.2097C25.0013 18.225 25.4236 18.2481 25.8146 18.2788C26.2838 18.3095 26.753 18.3248 27.2222 18.3248C27.2066 18.3863 27.1831 18.5014 27.1518 18.6703C27.1206 18.8392 27.0815 19.0465 27.0345 19.2922C26.9876 19.5225 26.9329 19.7835 26.8703 20.0753C26.8234 20.367 26.7686 20.6587 26.7061 20.9505C26.581 21.6261 26.4402 22.3861 26.2838 23.2306L26.4246 23.2076C26.581 22.9619 26.7999 22.6241 27.0815 22.1942C27.3786 21.7489 27.6836 21.2806 27.9964 20.7893C28.3092 20.2979 28.6142 19.8296 28.9114 19.3843C29.2085 18.9237 29.4588 18.5321 29.6621 18.2097C30.4441 18.1483 31.2261 18.0792 32.0081 18.0024C32.7901 17.9256 33.5721 17.8258 34.3542 17.703C33.6191 18.6703 32.9074 19.6223 32.2193 20.5589C31.9221 20.9582 31.6171 21.3727 31.3043 21.8027C31.0071 22.2326 30.71 22.6549 30.4128 23.0694C30.1157 23.484 29.8341 23.8832 29.5682 24.2671C29.318 24.651 29.0912 25.0041 28.8879 25.3266C29.232 26.8774 29.6386 28.3745 30.1078 29.8178C30.577 31.2611 31.0541 32.7352 31.5389 34.2399C31.1792 34.2246 30.8116 34.2169 30.4363 34.2169C30.0609 34.2016 29.6934 34.1939 29.3336 34.1939C28.8801 34.1939 28.4422 34.2016 28.0199 34.2169C27.5976 34.2169 27.1597 34.2246 26.7061 34.2399C26.5653 33.2419 26.4089 32.1978 26.2369 31.1076C26.0805 30.0021 25.9319 28.9503 25.7911 27.9522L25.3688 28.4359C25.2594 28.8965 25.1342 29.4646 24.9935 30.1402C24.8684 30.8159 24.7432 31.4684 24.6181 32.098C24.4774 32.835 24.3288 33.595 24.1724 34.3781L20.3718 34.9309Z" fill="white"/>
<path d="M31.2319 34.9309L34.3052 18.5552L41.7187 17.9333C41.6092 18.2711 41.5154 18.6166 41.4371 18.9697C41.3589 19.2615 41.2807 19.5686 41.2025 19.891C41.14 20.1981 41.0852 20.4745 41.0383 20.7202C40.8819 20.7355 40.6551 20.7509 40.358 20.7662C40.0765 20.7662 39.7715 20.7739 39.443 20.7893C39.1146 20.7893 38.7783 20.7893 38.4342 20.7893C38.1058 20.7893 37.8164 20.7893 37.5662 20.7893L36.7451 24.912C37.2299 24.8813 37.6835 24.8582 38.1058 24.8429C38.4499 24.8275 38.8018 24.8199 39.1615 24.8199C39.5212 24.8199 39.7871 24.8122 39.9591 24.7968C39.8966 25.2268 39.834 25.649 39.7715 26.0636C39.7245 26.4782 39.662 26.9004 39.5838 27.3303C39.4274 27.3457 39.1693 27.3611 38.8096 27.3764C38.4655 27.3764 38.1136 27.3841 37.7539 27.3994C37.3472 27.4148 36.9015 27.4302 36.4166 27.4455L35.619 31.6834L39.0442 31.1537L38.8096 33.7793L31.2319 34.9309Z" fill="white"/>
<path d="M39.1338 34.9309C39.5561 32.8887 39.9628 30.8926 40.3538 28.9426C40.4945 28.1134 40.6509 27.2536 40.823 26.363C40.995 25.4571 41.1514 24.5665 41.2922 23.6913C41.4486 22.8007 41.5893 21.9485 41.7145 21.1347C41.8552 20.3056 41.9647 19.5532 42.0429 18.8776C42.9344 18.6012 43.8963 18.4016 44.9285 18.2788C45.9608 18.1406 46.9852 18.0715 48.0018 18.0715C48.6118 18.0715 49.1123 18.1406 49.5033 18.2788C49.9099 18.417 50.2227 18.6166 50.4417 18.8776C50.6763 19.1233 50.8405 19.415 50.9344 19.7528C51.0282 20.0906 51.0751 20.4668 51.0751 20.8814C51.0751 21.4956 50.9656 22.1021 50.7467 22.7009C50.5277 23.2844 50.2306 23.8448 49.8552 24.3822C49.4955 24.9043 49.0732 25.388 48.5883 25.8333C48.1191 26.2632 47.6108 26.6164 47.0634 26.8927C47.3449 27.5069 47.6421 28.1825 47.9549 28.9196C48.2833 29.6412 48.5883 30.3322 48.8699 30.9924C49.1827 31.7602 49.5033 32.5279 49.8317 33.2956L46.1954 34.5394C45.8826 33.5567 45.601 32.6354 45.3508 31.7755C45.2413 31.4224 45.1318 31.0615 45.0224 30.693C44.9129 30.3092 44.8112 29.9483 44.7174 29.6105C44.6235 29.2727 44.5453 28.9733 44.4828 28.7123C44.4202 28.4359 44.3811 28.2132 44.3655 28.0443L44.0605 28.1365C43.9666 28.6278 43.8493 29.2036 43.7086 29.8639C43.5835 30.5241 43.4662 31.1613 43.3567 31.7755C43.2159 32.4972 43.0752 33.2265 42.9344 33.9636L39.1338 34.9309ZM44.647 24.935C44.9442 24.9043 45.3039 24.7815 45.7262 24.5665C46.1641 24.3515 46.5786 24.0982 46.9696 23.8064C47.3606 23.4994 47.6968 23.1846 47.9784 22.8621C48.2599 22.5397 48.4007 22.2556 48.4007 22.01C48.4007 21.8411 48.3459 21.7105 48.2364 21.6184C48.1269 21.5109 47.9705 21.4342 47.7672 21.3881C47.5795 21.3267 47.3684 21.2883 47.1338 21.2729C46.8992 21.2576 46.6568 21.2499 46.4065 21.2499C46.2345 21.2499 46.0546 21.2576 45.8669 21.2729C45.6949 21.2729 45.5385 21.2729 45.3977 21.2729L44.647 24.935Z" fill="white"/>
<path d="M51.2707 34.5624L52.3499 29.933C52.3499 29.2727 52.3342 28.5587 52.3029 27.791C52.2873 27.0079 52.256 26.2248 52.2091 25.4417C52.1622 24.6586 52.1153 23.9063 52.0683 23.1846C52.0214 22.4476 51.9823 21.8027 51.951 21.2499C51.9198 20.6818 51.8885 20.2288 51.8572 19.891C51.8259 19.5532 51.8103 19.3843 51.8103 19.3843L55.6343 17.9563V20.7662C55.6343 21.1501 55.6343 21.5416 55.6343 21.9409C55.6343 22.3401 55.6265 22.7316 55.6108 23.1155C55.6108 23.4994 55.6108 23.8602 55.6108 24.198C55.6108 24.5358 55.6108 24.8199 55.6108 25.0502C55.8142 24.5281 56.0566 23.8832 56.3381 23.1155C56.6353 22.3478 56.909 21.6031 57.1592 20.8814C57.4564 20.0369 57.7614 19.1463 58.0742 18.2097L61.7105 19.0158C61.038 20.3363 60.3811 21.6491 59.7399 22.9543C59.474 23.5224 59.1925 24.1135 58.8953 24.7277C58.5981 25.3266 58.301 25.9331 58.0038 26.5473C57.7066 27.1461 57.4173 27.7296 57.1358 28.2977C56.8542 28.8658 56.5962 29.3955 56.3616 29.8869C56.2834 30.2861 56.1817 30.7237 56.0566 31.1997C55.9471 31.6757 55.8376 32.1287 55.7281 32.5586C55.5874 33.0653 55.4388 33.572 55.2824 34.0787L51.2707 34.5624Z" fill="white"/>
</svg>
